<svg width="6" height="10" viewBox="0 0 6 10" fill="none" xmlns="http://www.w3.org/2000/svg">
<path d="M5.35841 4.40825L1.82507 0.874917C1.74761 0.79681 1.65544 0.734814 1.55389 0.692507C1.45234 0.6502 1.34342 0.628418 1.23341 0.628418C1.1234 0.628418 1.01448 0.6502 0.912927 0.692507C0.811378 0.734814 0.71921 0.79681 0.641741 0.874917C0.486532 1.03105 0.399414 1.24226 0.399414 1.46242C0.399414 1.68257 0.486532 1.89378 0.641741 2.04992L3.59174 4.99992L0.641741 7.94992C0.486532 8.10605 0.399414 8.31726 0.399414 8.53742C0.399414 8.75757 0.486532 8.96878 0.641741 9.12492C0.719608 9.20215 0.811955 9.26326 0.913486 9.30473C1.01502 9.3462 1.12374 9.36722 1.23341 9.36658C1.34308 9.36722 1.4518 9.3462 1.55333 9.30473C1.65486 9.26326 1.74721 9.20215 1.82507 9.12492L5.35841 5.59158C5.43651 5.51411 5.49851 5.42195 5.54082 5.3204C5.58312 5.21885 5.60491 5.10993 5.60491 4.99992C5.60491 4.88991 5.58312 4.78099 5.54082 4.67944C5.49851 4.57789 5.43651 4.48572 5.35841 4.40825Z" fill="#F0FDF4"/>
</svg>
