<svg width="6" height="6" viewBox="0 0 6 6" fill="none" xmlns="http://www.w3.org/2000/svg">
<path d="M5.96 2.80997C5.9362 2.74859 5.90052 2.69252 5.855 2.64497L3.355 0.144971C3.30838 0.0983514 3.25304 0.0613711 3.19213 0.0361409C3.13121 0.0109108 3.06593 -0.0020752 3 -0.0020752C2.86685 -0.0020752 2.73915 0.0508188 2.645 0.144971C2.59838 0.19159 2.5614 0.246935 2.53617 0.307846C2.51094 0.368757 2.49795 0.434041 2.49795 0.499971C2.49795 0.633122 2.55085 0.760819 2.645 0.854971L4.295 2.49997H0.5C0.367392 2.49997 0.240215 2.55265 0.146447 2.64642C0.0526785 2.74019 0 2.86736 0 2.99997C0 3.13258 0.0526785 3.25976 0.146447 3.35352C0.240215 3.44729 0.367392 3.49997 0.5 3.49997H4.295L2.645 5.14497C2.59814 5.19145 2.56094 5.24675 2.53555 5.30768C2.51017 5.36861 2.4971 5.43396 2.4971 5.49997C2.4971 5.56598 2.51017 5.63133 2.53555 5.69226C2.56094 5.75319 2.59814 5.80849 2.645 5.85497C2.69148 5.90183 2.74678 5.93903 2.80771 5.96442C2.86864 5.9898 2.93399 6.00287 3 6.00287C3.06601 6.00287 3.13136 5.9898 3.19229 5.96442C3.25322 5.93903 3.30852 5.90183 3.355 5.85497L5.855 3.35497C5.90052 3.30742 5.9362 3.25135 5.96 3.18997C6.01001 3.06824 6.01001 2.9317 5.96 2.80997Z" fill="#22C55E"/>
</svg>
