<svg width="6" height="6" viewBox="0 0 6 6" fill="none" xmlns="http://www.w3.org/2000/svg">
<path d="M3.705 2.99997L5.855 0.854971C5.94915 0.760819 6.00205 0.633122 6.00205 0.499971C6.00205 0.36682 5.94915 0.239123 5.855 0.144971C5.76085 0.0508188 5.63315 -0.0020752 5.5 -0.0020752C5.36685 -0.0020752 5.23915 0.0508188 5.145 0.144971L3 2.29497L0.855 0.144971C0.760848 0.0508188 0.633151 -0.0020752 0.5 -0.0020752C0.366849 -0.00207519 0.239152 0.0508188 0.145 0.144971C0.0508481 0.239123 -0.00204587 0.36682 -0.00204587 0.499971C-0.00204587 0.633122 0.0508481 0.760819 0.145 0.854971L2.295 2.99997L0.145 5.14497C0.0981358 5.19145 0.0609387 5.24675 0.0355544 5.30768C0.0101701 5.36861 -0.00289917 5.43396 -0.00289917 5.49997C-0.00289917 5.56598 0.0101701 5.63133 0.0355544 5.69226C0.0609387 5.75319 0.0981358 5.80849 0.145 5.85497C0.191481 5.90183 0.246782 5.93903 0.307712 5.96442C0.368641 5.9898 0.433994 6.00287 0.5 6.00287C0.566006 6.00287 0.631359 5.9898 0.692288 5.96442C0.753218 5.93903 0.808519 5.90183 0.855 5.85497L3 3.70497L5.145 5.85497C5.19148 5.90183 5.24678 5.93903 5.30771 5.96442C5.36864 5.9898 5.43399 6.00287 5.5 6.00287C5.56601 6.00287 5.63136 5.9898 5.69229 5.96442C5.75322 5.93903 5.80852 5.90183 5.855 5.85497C5.90186 5.80849 5.93906 5.75319 5.96445 5.69226C5.98983 5.63133 6.0029 5.56598 6.0029 5.49997C6.0029 5.43396 5.98983 5.36861 5.96445 5.30768C5.93906 5.24675 5.90186 5.19145 5.855 5.14497L3.705 2.99997Z" fill="#BBF7D0"/>
</svg>
