<svg width="8" height="14" viewBox="0 0 8 14" fill="none" xmlns="http://www.w3.org/2000/svg">
<path d="M0.423062 7.42444L5.98614 13.1699C6.07749 13.2652 6.18681 13.3415 6.30779 13.3943C6.42877 13.4471 6.55901 13.4755 6.691 13.4777C6.823 13.48 6.95413 13.4561 7.07683 13.4074C7.19954 13.3587 7.31139 13.2862 7.40593 13.194C7.59534 13.0099 7.70418 12.7582 7.70867 12.4941C7.71317 12.23 7.61295 11.9748 7.42992 11.7843L2.56568 6.70078L7.59917 1.83569C7.78858 1.65153 7.89741 1.39989 7.90191 1.13574C7.9064 0.871594 7.80619 0.616401 7.62315 0.425897C7.53216 0.329847 7.423 0.252809 7.30202 0.199247C7.18104 0.145684 7.05063 0.116664 6.91835 0.113864C6.78606 0.112163 6.65474 0.136731 6.532 0.186147C6.40927 0.235563 6.29756 0.308844 6.20335 0.401743L0.448067 5.95465C0.344984 6.04655 0.262054 6.15881 0.204503 6.28435C0.146951 6.40989 0.116027 6.54598 0.113678 6.68407C0.111329 6.82215 0.137606 6.95922 0.190854 7.08664C0.244101 7.21407 0.323165 7.32908 0.423062 7.42444Z" fill="black"/>
</svg>
