<?xml version="1.0" encoding="utf-8"?><svg viewBox="0 0 16 17" xmlns="http://www.w3.org/2000/svg" xmlns:xlink="http://www.w3.org/1999/xlink"><style>:root>svg{display:none}:root>svg:target{display:block}</style><svg viewBox="0 0 16 17" id="icon-search" xmlns="http://www.w3.org/2000/svg"><path fill-rule="evenodd" clip-rule="evenodd" d="m11.813 11.276 3.944 4.208a.913.913 0 0 1-.024 1.266.857.857 0 0 1-1.234-.024l-3.974-4.24a6.505 6.505 0 0 1-3.834 1.241C3.001 13.727 0 10.648 0 6.864 0 3.079 3.002 0 6.691 0c3.69 0 6.691 3.08 6.691 6.864 0 1.62-.555 3.176-1.57 4.412Zm-.176-4.412c0-2.798-2.219-5.073-4.946-5.073S1.746 4.066 1.746 6.864c0 2.797 2.218 5.073 4.945 5.073 2.727 0 4.946-2.276 4.946-5.073Z"/></svg></svg>