<?xml version="1.0" encoding="utf-8"?><svg viewBox="0 0 21 18" xmlns="http://www.w3.org/2000/svg" xmlns:xlink="http://www.w3.org/1999/xlink"><style>:root>svg{display:none}:root>svg:target{display:block}</style><svg viewBox="0 0 12 12" id="icon-close" xmlns="http://www.w3.org/2000/svg"><path d="m7.41 6 4.3-4.29A1.004 1.004 0 1 0 10.29.29L6 4.59 1.71.29A1.004 1.004 0 0 0 .29 1.71L4.59 6l-4.3 4.29a1 1 0 0 0 0 1.42.998.998 0 0 0 1.42 0L6 7.41l4.29 4.3a.998.998 0 0 0 1.42 0 .997.997 0 0 0 .219-1.095.998.998 0 0 0-.22-.325L7.41 6Z"/></svg><svg viewBox="0 0 10 16" id="icon-facebook" xmlns="http://www.w3.org/2000/svg"><path d="M8.783.211 6.784.208c-2.246 0-3.697 1.492-3.697 3.8v1.753h-2.01a.315.315 0 0 0-.315.315v2.539c0 .174.141.315.315.315h2.01v6.406c0 .174.14.315.314.315h2.623a.315.315 0 0 0 .314-.315V8.93h2.35c.174 0 .314-.141.314-.315l.001-2.54a.316.316 0 0 0-.314-.314H6.338V4.275c0-.713.17-1.076 1.098-1.076h1.347a.315.315 0 0 0 .314-.315V.526a.315.315 0 0 0-.314-.315Z"/></svg><svg viewBox="0 0 21 14" id="icon-google" xmlns="http://www.w3.org/2000/svg"><path d="M.223 6.962C.103 3.76 2.854.802 5.998.763c1.602-.139 3.16.495 4.372 1.53a27.926 27.926 0 0 1-1.543 1.624c-1.068-.66-2.353-1.165-3.6-.717-2.012.584-3.23 3.006-2.486 5.013.617 2.096 3.117 3.246 5.077 2.365 1.014-.37 1.683-1.325 1.977-2.35-1.163-.024-2.326-.01-3.49-.042-.002-.705-.005-1.408-.002-2.113 1.94-.003 3.881-.01 5.824.008.119 1.729-.131 3.578-1.233 4.966-1.51 1.98-4.298 2.561-6.566 1.784C1.921 12.025.171 9.553.223 6.961ZM15.907 4.294h1.73l.011 1.772c.579.006 1.16.01 1.739.012v1.767l-1.739.009c-.006.593-.008 1.182-.012 1.775-.578-.003-1.157 0-1.732 0-.006-.593-.006-1.182-.012-1.772-.579-.006-1.16-.01-1.739-.012V6.078c.579-.003 1.158-.006 1.739-.012.003-.59.009-1.182.015-1.772Z"/></svg><svg viewBox="0 0 18 18" id="icon-instagram" xmlns="http://www.w3.org/2000/svg"><path fill-rule="evenodd" clip-rule="evenodd" d="M5.813.5h6.375A5.313 5.313 0 0 1 17.5 5.813v6.375a5.313 5.313 0 0 1-5.313 5.312H5.814A5.313 5.313 0 0 1 .5 12.187V5.814A5.313 5.313 0 0 1 5.813.5Zm6.375 15.406a3.723 3.723 0 0 0 3.718-3.719V5.814a3.723 3.723 0 0 0-3.719-3.72H5.814a3.723 3.723 0 0 0-3.72 3.72v6.375a3.723 3.723 0 0 0 3.72 3.718h6.375Z"/><path fill-rule="evenodd" clip-rule="evenodd" d="M4.75 9a4.25 4.25 0 1 1 8.5 0 4.25 4.25 0 0 1-8.5 0Zm1.594 0A2.66 2.66 0 0 0 9 11.656 2.66 2.66 0 0 0 11.656 9 2.66 2.66 0 0 0 9 6.344 2.66 2.66 0 0 0 6.344 9Z"/><path d="M13.604 5.458a1.063 1.063 0 1 0 0-2.125 1.063 1.063 0 0 0 0 2.125Z"/></svg><svg viewBox="0 0 8 14" id="icon-left" xmlns="http://www.w3.org/2000/svg"><path d="m.423 7.424 5.563 5.746a1 1 0 1 0 1.444-1.386L2.566 6.701l5.033-4.865a1 1 0 0 0 .024-1.41 1 1 0 0 0-.705-.312 1 1 0 0 0-.715.288L.448 5.955a1 1 0 0 0-.025 1.47Z"/></svg><svg viewBox="0 0 13 16" id="icon-pinterest" xmlns="http://www.w3.org/2000/svg"><path d="M10.809 1.8C9.756.774 8.298.208 6.705.208c-2.434 0-3.931 1.013-4.759 1.863C.926 3.118.342 4.509.342 5.886c0 1.73.713 3.057 1.906 3.55.08.034.16.05.24.05.251 0 .45-.166.52-.435.04-.154.133-.533.174-.698.087-.325.017-.482-.173-.709-.345-.414-.506-.904-.506-1.542 0-1.895 1.39-3.91 3.966-3.91 2.044 0 3.313 1.18 3.313 3.079 0 1.198-.254 2.307-.716 3.124-.32.567-.885 1.244-1.75 1.244-.375 0-.711-.156-.924-.429a1.09 1.09 0 0 1-.186-.936c.092-.392.216-.8.336-1.195.22-.721.427-1.402.427-1.946 0-.93-.563-1.554-1.4-1.554-1.065 0-1.9 1.098-1.9 2.5 0 .686.18 1.2.262 1.398-.134.577-.93 4.006-1.082 4.653-.087.377-.614 3.359.258 3.597.979.267 1.854-2.637 1.943-2.965.072-.267.325-1.276.48-1.897.472.463 1.233.775 1.974.775 1.396 0 2.652-.638 3.535-1.796.857-1.123 1.33-2.689 1.33-4.408 0-1.344-.569-2.67-1.56-3.636Z"/></svg><svg viewBox="0 0 8 14" id="icon-right" xmlns="http://www.w3.org/2000/svg"><path d="M7.37 5.946 1.71.296a1 1 0 1 0-1.42 1.41l4.95 5-4.95 4.95a1 1 0 0 0 0 1.41 1 1 0 0 0 .71.3 1.003 1.003 0 0 0 .71-.3l5.66-5.65a1 1 0 0 0 0-1.47Z"/></svg><svg viewBox="0 0 16 17" id="icon-search" xmlns="http://www.w3.org/2000/svg"><path fill-rule="evenodd" clip-rule="evenodd" d="m11.813 11.276 3.944 4.208a.913.913 0 0 1-.024 1.266.857.857 0 0 1-1.234-.024l-3.974-4.24a6.505 6.505 0 0 1-3.834 1.241C3.001 13.727 0 10.648 0 6.864 0 3.079 3.002 0 6.691 0c3.69 0 6.691 3.08 6.691 6.864 0 1.62-.555 3.176-1.57 4.412Zm-.176-4.412c0-2.798-2.219-5.073-4.946-5.073S1.746 4.066 1.746 6.864c0 2.797 2.218 5.073 4.945 5.073 2.727 0 4.946-2.276 4.946-5.073Z"/></svg><svg viewBox="0 0 16 14" id="icon-twitter" xmlns="http://www.w3.org/2000/svg"><path d="M15.792 2.134a6.346 6.346 0 0 1-1.837.507A3.224 3.224 0 0 0 15.361.86a6.375 6.375 0 0 1-2.03.78A3.184 3.184 0 0 0 10.997.625C9.23.625 7.8 2.066 7.8 3.844c0 .252.028.498.083.733a9.055 9.055 0 0 1-6.59-3.363A3.222 3.222 0 0 0 .86 2.832c0 1.117.565 2.102 1.422 2.68a3.158 3.158 0 0 1-1.448-.404v.041c0 1.56 1.102 2.86 2.565 3.156a3.166 3.166 0 0 1-1.444.056 3.203 3.203 0 0 0 2.987 2.235 6.388 6.388 0 0 1-4.734 1.333 9 9 0 0 0 4.9 1.446c5.881 0 9.097-4.905 9.097-9.158 0-.14-.003-.279-.009-.417a6.51 6.51 0 0 0 1.596-1.666Z"/></svg></svg>